IKResults
version=1
nRows=9
nColumns=63
inDegrees=yes

Units are S.I. units (second, meters, Newtons, ...)
If the header above contains a line with 'inDegrees', this indicates whether rotational values are in degrees (yes) or radians (no).

endheader
time	pelvis_tilt	pelvis_list	pelvis_rotation	pelvis_tx	pelvis_ty	pelvis_tz	hip_flexion_r	hip_adduction_r	hip_rotation_r	knee_angle_r	knee_angle_r_beta	ankle_angle_r	subtalar_angle_r	mtp_angle_r	hip_flexion_l	hip_adduction_l	hip_rotation_l	knee_angle_l	knee_angle_l_beta	ankle_angle_l	subtalar_angle_l	mtp_angle_l	L5_S1_Flex_Ext	L5_S1_Lat_Bending	L5_S1_axial_rotation	L4_L5_Flex_Ext	L4_L5_Lat_Bending	L4_L5_axial_rotation	L3_L4_Flex_Ext	L3_L4_Lat_Bending	L3_L4_axial_rotation	L2_L3_Flex_Ext	L2_L3_Lat_Bending	L2_L3_axial_rotation	L1_L2_Flex_Ext	L1_L2_Lat_Bending	L1_L2_axial_rotation	L1_T12_Flex_Ext	L1_T12_Lat_Bending	L1_T12_axial_rotation	Abs_r3	Abs_r2	Abs_r1	Abs_t1	Abs_t2	neck_flexion	neck_bending	neck_rotation	arm_flex_r	arm_add_r	arm_rot_r	elbow_flex_r	pro_sup_r	wrist_flex_r	wrist_dev_r	arm_flex_l	arm_add_l	arm_rot_l	elbow_flex_l	pro_sup_l	wrist_flex_l	wrist_dev_l
      6.03333333	   -102.16996709	     24.94436860	     32.88182005	     -0.85121544	      0.38236146	     -0.84441757	    146.35090499	     -1.02880512	      1.21743669	    106.18979496	      1.85336155	      0.00000000	      0.00000000	      0.00000000	    149.77763928	    -34.99480613	     -3.59023664	    102.03407782	      1.78083061	     32.90344856	      2.96608792	      0.00000000	      8.81560954	     -3.17224797	     -1.03932737	     16.37146848	     -4.21908980	     -1.10428533	     14.48316491	     -7.71300371	     -1.10428533	     10.07536014	     -7.71300371	     -0.90941144	      8.18617502	     -6.46884805	     -0.84445348	      5.03723929	     -4.91381210	     -0.77949552	     62.96901738	    -35.88510344	     -5.78042701	      0.00000000	      0.00000000	      6.71401064	      4.04203135	     -9.11009698	    177.60248135	   -158.87253191	    144.58823574	     29.35587707	     89.99559364	      0.00000000	      0.00000000	    -27.51762386	    -59.13559731	    -19.24904447	     97.00774359	     89.99559364	      0.00000000	      0.00000000
      6.06666667	   -101.66773888	     24.83210479	     32.16601915	     -0.84601823	      0.38719616	     -0.86469047	    146.50693661	     -3.77804542	      1.41846770	    107.29792082	      1.87270200	      0.00000000	      0.00000000	      0.00000000	    149.79419284	    -33.89648087	     -4.61528382	    102.61986719	      1.79105456	     33.82728619	      2.65853093	      0.00000000	      8.96873331	     -3.32071690	     -1.02137955	     16.65583463	     -4.41655348	     -1.08521577	     14.73473195	     -8.07399108	     -1.08521577	     10.25036530	     -8.07399108	     -0.89370711	      8.32836575	     -6.77160591	     -0.82987088	      5.12473421	     -5.14379048	     -0.76603466	     64.06276516	    -37.56461375	     -5.68060665	      0.00000000	      0.00000000	      4.94211655	      5.14473503	    -12.11600858	    176.10934500	   -159.17343355	    146.33443471	     27.27648936	     89.99559364	      0.00000000	      0.00000000	    -32.12502293	    -61.08866869	    -24.49559310	     93.94804953	     89.99559364	      0.00000000	      0.00000000
      6.10000000	   -100.58353947	     24.33789440	     30.92059306	     -0.84019239	      0.39302652	     -0.88493805	    146.03824725	     -6.85438430	      1.55701356	    107.29302807	      1.87261660	      0.00000000	      0.00000000	      0.00000000	    149.80870065	    -32.24288226	     -4.97267739	    103.11273035	      1.79965665	     34.94559934	      2.08094768	      0.00000000	      9.08577503	     -3.41806561	     -0.95425862	     16.87319281	     -4.54602727	     -1.01389979	     14.92701980	     -8.31068473	     -1.01389979	     10.38413228	     -8.31068473	     -0.83497629	      8.43705069	     -6.97011940	     -0.77533513	      5.19161185	     -5.29458364	     -0.71569397	     64.89878247	    -38.66584183	     -5.30730018	      0.00000000	      0.00000000	      3.07641199	      6.02595829	    -15.19867482	    174.10758708	   -159.84629702	    146.83451344	     25.37597121	     89.99559364	      0.00000000	      0.00000000	    -34.66934148	    -62.94787422	    -27.40520942	     90.80915377	     89.99559364	      0.00000000	      0.00000000
      6.13333333	    -99.49760942	     23.52441551	     29.42924862	     -0.83360524	      0.39987037	     -0.90426929	    145.10996952	     -9.91122433	      2.32731205	    107.61459776	      1.87822905	      0.00000000	      0.00000000	      0.00000000	    149.82072894	    -30.46598475	     -5.06532318	    103.43935104	      1.80535725	     36.27702834	      1.54833874	      0.00000000	      9.29066816	     -3.46066354	     -1.04448632	     17.25369983	     -4.60268250	     -1.10976672	     15.26363871	     -8.41425732	     -1.10976672	     10.61830464	     -8.41425732	     -0.91392553	      8.62731445	     -7.05698508	     -0.84864514	      5.30868778	     -5.36056782	     -0.78336474	     66.36231357	    -39.14771806	     -5.80911959	      0.00000000	      0.00000000	      1.29924059	      7.57862902	    -16.60651689	    172.33719734	   -160.14623477	    152.19595388	     23.20264884	     89.99559364	      0.00000000	      0.00000000	    -40.00503476	    -63.94643548	    -32.95522235	     88.84609924	     89.99559364	      0.00000000	      0.00000000
      6.16666667	    -97.89145230	     22.27383320	     27.30556332	     -0.82649908	      0.40824285	     -0.92341139	    143.30039602	    -13.08369340	      2.39438297	    107.53143926	      1.87677766	      0.00000000	      0.00000000	      0.00000000	    149.82370095	    -28.22984985	     -4.37223855	    103.67530996	      1.80947551	     37.61674615	      0.79277739	      0.00000000	      9.43331640	     -3.44725221	     -0.97401452	     17.51861189	     -4.58484544	     -1.03489043	     15.49799552	     -8.38164902	     -1.03489043	     10.78133732	     -8.38164902	     -0.85226271	      8.75977761	     -7.02963670	     -0.79138680	      5.39019699	     -5.33979367	     -0.73051089	     67.38123573	    -38.99600642	     -5.41717657	      0.00000000	      0.00000000	     -0.22635120	      8.94110515	    -17.82471233	    169.58052073	   -161.39102465	    152.65955999	     21.99237733	     89.99559364	      0.00000000	      0.00000000	    -41.25860525	    -65.52275971	    -33.97887949	     86.44821464	     89.99559364	      0.00000000	      0.00000000
      6.20000000	    -95.92858809	     20.22782970	     25.01323923	     -0.81859564	      0.41794726	     -0.94370611	    140.75872561	    -16.76552989	      4.54171093	    107.87563512	      1.88278502	      0.00000000	      0.00000000	      0.00000000	    149.83851602	    -25.06228739	     -3.13843408	    103.77532079	      1.81122103	     38.93827743	     -0.36245125	      0.00000000	      9.58319755	     -3.32363003	     -1.11016019	     17.79695617	     -4.42042795	     -1.17954520	     15.74423525	     -8.08107406	     -1.17954520	     10.95263648	     -8.08107406	     -0.97139017	      8.89895724	     -6.77754637	     -0.90200515	      5.47583908	     -5.14830292	     -0.83262014	     68.45182176	    -37.59756767	     -6.17437793	      0.00000000	      0.00000000	     -1.61895286	      9.62299188	    -19.07276667	    167.31751078	   -158.40358445	    178.60688809	     19.81466887	     89.99559364	      0.00000000	      0.00000000	    -43.45804513	    -65.70355570	    -36.14312775	     85.47804145	     89.99559364	      0.00000000	      0.00000000
      6.23333333	    -93.94359439	     17.71022279	     22.23784397	     -0.81034976	      0.42921253	     -0.96330959	    137.26957291	    -20.02756703	      4.92473621	    107.50566053	      1.87632774	      0.00000000	      0.00000000	      0.00000000	    149.84357281	    -21.79384364	     -1.26448561	    103.71851126	      1.81022952	     40.17903471	     -1.51805203	      0.00000000	      9.74224921	     -3.12302295	     -1.15777406	     18.09233102	     -4.15362052	     -1.23013494	     16.00554123	     -7.59331800	     -1.23013494	     11.13441663	     -7.59331800	     -1.01305230	      9.04665262	     -6.36846840	     -0.94069142	      5.56672120	     -4.83756255	     -0.86833054	     69.58791191	    -35.32826020	     -6.43919199	      0.00000000	      0.00000000	     -2.69196726	     10.16009613	    -19.04958364	    165.32278236	   -156.92267119	    198.30510621	     19.12961670	     89.99559364	      0.00000000	      0.00000000	    -43.26780845	    -66.06102122	    -35.47538803	     84.38037476	     89.99559364	      0.00000000	      0.00000000
      6.26666667	    -92.34885706	     14.78726805	     19.35116498	     -0.80179000	      0.44204182	     -0.98223908	    133.17619480	    -22.64794236	      4.80773661	    107.35813537	      1.87375294	      0.00000000	      0.00000000	      0.00000000	    149.84038099	    -18.53701205	      0.89039571	    103.41732841	      1.80497288	     41.23009667	     -2.60851169	      0.00000000	      9.94597391	     -2.86922660	     -1.21495287	     18.47066816	     -3.81607138	     -1.29088742	     16.34024054	     -6.97623756	     -1.29088742	     11.36725359	     -6.97623756	     -1.06308376	      9.23583138	     -5.85092689	     -0.98714921	      5.68312949	     -4.44443201	     -0.91121465	     71.04309707	    -32.45726517	     -6.75720337	      0.00000000	      0.00000000	     -3.14347923	     10.23679224	    -18.62415025	    161.55887717	   -157.63539953	    200.37021599	     20.33158495	     89.99559364	      0.00000000	      0.00000000	    -43.09935239	    -66.12512188	    -34.57171625	     84.03680429	     89.99559364	      0.00000000	      0.00000000
      6.30000000	    -90.58727298	     10.94463654	     16.08355737	     -0.79343254	      0.45638288	     -1.00268065	    128.02835408	    -24.98558412	      0.64680608	    105.86806944	      1.84774638	      0.00000000	      0.00000000	      0.00000000	    149.83035396	    -14.53216016	      3.92993512	    103.00275629	      1.79773724	     41.91805779	     -4.15908011	      0.00000000	     10.12922924	     -2.45829663	     -1.30682718	     18.81099162	     -3.26953451	     -1.38850388	     16.64131072	     -5.97710242	     -1.38850388	     11.57669610	     -5.97710242	     -1.14347378	      9.40600227	     -5.01295848	     -1.06179708	      5.78784159	     -3.80790147	     -0.98012039	     72.35207154	    -27.80874310	     -7.26818073	      0.00000000	      0.00000000	     -3.61024043	      9.57652497	    -16.99647423	    161.56021123	   -154.53279410	    231.19757381	     21.57825434	     89.99559364	      0.00000000	      0.00000000	    -39.74381480	    -65.47024356	    -30.08817778	     83.33060455	     89.99559364	      0.00000000	      0.00000000
